<?xml version="1.0" encoding="UTF-8" standalone="no"?>
<svg
   xmlns:dc="http://purl.org/dc/elements/1.1/"
   xmlns:cc="http://creativecommons.org/ns#"
   xmlns:rdf="http://www.w3.org/1999/02/22-rdf-syntax-ns#"
   xmlns:svg="http://www.w3.org/2000/svg"
   xmlns="http://www.w3.org/2000/svg"
   viewBox="0 0 8064 10992"
   height="10992"
   width="8064"
   xml:space="preserve"
   id="svg2"
   version="1.1"><metadata
     id="metadata8"><rdf:RDF><cc:Work
         rdf:about=""><dc:format>image/svg+xml</dc:format><dc:type
           rdf:resource="http://purl.org/dc/dcmitype/StillImage" /></cc:Work></rdf:RDF></metadata><defs
     id="defs6"><clipPath
       id="clipPath18"
       clipPathUnits="userSpaceOnUse"><path
         id="path16"
         d="M 0,8244 H 6048 V 0 H 0 Z" /></clipPath></defs><g
     transform="matrix(1.3333333,0,0,-1.3333333,0,10992)"
     id="g10"><g
       id="g12"><g
         clip-path="url(#clipPath18)"
         id="g14"><g
           transform="translate(2288.9004,6751.2534)"
           id="g20"><path
             id="path22"
             style="fill:#0e3f99;fill-opacity:1;fill-rule:nonzero;stroke:none"
             d="m 0,0 c 0,25.792 -11.036,57.197 -59.192,57.197 -34.314,0 -49.882,-25.183 -49.882,-54.536 0,-29.354 20.618,-51.052 52.005,-51.052 C -19.288,-48.391 0,-25.792 0,0 m -228.706,5.107 c -0.816,49.34 -47.45,93.294 -96.413,90.873 -48.754,-2.411 -87.702,-44.093 -87.183,-93.303 0.549,-52.019 42.555,-91.385 95.24,-89.254 49.417,1.999 89.158,43.236 88.356,91.684 m 1003.4,-102.359 c 88.257,0 176.596,-1.985 264.704,1.641 18.051,0.743 52.823,4.794 52.823,34.573 0,29.779 -36.296,32.873 -54.684,33.145 -172.721,2.56 -345.51,2.547 -518.233,0.042 -18.653,-0.27 -52.817,-3.326 -52.817,-32.63 0,-29.305 27.615,-36.768 54.702,-36.78 84.501,-0.038 169.003,-0.014 253.505,0.009 m 1.655,-5251.873 c 52.584,0 105.269,-2.085 157.729,0.467 87.769,4.273 154.644,74.669 156.799,161.493 2.183,87.895 -66.016,164.445 -155.99,167.397 -103.18,3.386 -206.614,3.177 -309.821,0.321 -91.118,-2.52 -159.421,-75.594 -159.777,-164.095 -0.355,-88.136 68.631,-161.176 158.956,-165.299 50.601,-2.31 101.395,-0.415 152.104,-0.284 M 2153.66,-460.699 H -595.448 V -4881.881 H 2153.66 Z M -367.791,-5562.747 c -144.039,0 -228.494,60.224 -294.97,132.492 -86.991,94.571 -114.566,207.888 -114.468,332.472 0.557,717.322 0.27,1434.644 0.27,2151.965 0,899.948 0.113,1799.895 -0.147,2699.842 -0.032,107.579 16.939,209.944 84.354,297.976 91.669,119.707 215.37,169.583 363.849,169.453 722.969,-0.63 1445.94,-0.284 2168.91,-0.284 15.062,0 30.124,0.045 45.185,-0.008 265.366,-0.943 438.403,-168.26 447.937,-433.223 0.475,-13.163 0.156,-26.356 0.156,-39.535 0.01,-1613.504 -0.308,-3227.007 0.508,-4840.511 0.079,-155.242 -38.799,-292.952 -170.886,-384.917 -55.446,-38.604 -147.385,-85.722 -254.122,-85.722 z" /></g></g></g></g></svg>