<?xml version="1.0" encoding="UTF-8" standalone="no"?>
<svg
   xmlns:dc="http://purl.org/dc/elements/1.1/"
   xmlns:cc="http://creativecommons.org/ns#"
   xmlns:rdf="http://www.w3.org/1999/02/22-rdf-syntax-ns#"
   xmlns:svg="http://www.w3.org/2000/svg"
   xmlns="http://www.w3.org/2000/svg"
   viewBox="0 0 342.14667 342.14667"
   height="342.14667"
   width="342.14667"
   xml:space="preserve"
   id="svg2"
   version="1.1"><metadata
     id="metadata8"><rdf:RDF><cc:Work
         rdf:about=""><dc:format>image/svg+xml</dc:format><dc:type
           rdf:resource="http://purl.org/dc/dcmitype/StillImage" /></cc:Work></rdf:RDF></metadata><defs
     id="defs6"><clipPath
       id="clipPath18"
       clipPathUnits="userSpaceOnUse"><path
         id="path16"
         d="M 0,256.61 H 256.61 V 0 H 0 Z" /></clipPath></defs><g
     transform="matrix(1.3333333,0,0,-1.3333333,0,342.14667)"
     id="g10"><g
       id="g12"><g
         clip-path="url(#clipPath18)"
         id="g14"><g
           transform="translate(60.8589,144.0768)"
           id="g20"><path
             id="path22"
             style="fill:#0e3f99;fill-opacity:1;fill-rule:nonzero;stroke:none"
             d="m 0,0 c -6.853,0 -6.853,-10.646 0,-10.646 h 81.875 c 6.865,0 6.865,10.646 0,10.646 z" /></g><g
           transform="translate(142.7344,118.9059)"
           id="g24"><path
             id="path26"
             style="fill:#0e3f99;fill-opacity:1;fill-rule:nonzero;stroke:none"
             d="m 0,0 h -81.875 c -6.854,0 -6.854,-10.634 0,-10.634 H 0 C 6.865,-10.634 6.865,0 0,0" /></g><g
           transform="translate(142.7344,95.5924)"
           id="g28"><path
             id="path30"
             style="fill:#0e3f99;fill-opacity:1;fill-rule:nonzero;stroke:none"
             d="m 0,0 h -81.875 c -6.854,0 -6.854,-10.634 0,-10.634 H 0 C 6.865,-10.633 6.865,0 0,0" /></g><g
           transform="translate(142.7344,70.4264)"
           id="g32"><path
             id="path34"
             style="fill:#0e3f99;fill-opacity:1;fill-rule:nonzero;stroke:none"
             d="m 0,0 h -81.875 c -6.854,0 -6.854,-10.63 0,-10.63 H 0 C 6.865,-10.628 6.865,0 0,0" /></g><g
           transform="translate(141.1699,46.6764)"
           id="g36"><path
             id="path38"
             style="fill:#0e3f99;fill-opacity:1;fill-rule:nonzero;stroke:none"
             d="m 0,0 h -81.89 c -6.848,0 -6.848,-10.634 0,-10.634 H 0 C 6.845,-10.633 6.845,0 0,0" /></g><g
           transform="translate(165.0264,13.2174)"
           id="g40"><path
             id="path42"
             style="fill:#0e3f99;fill-opacity:1;fill-rule:nonzero;stroke:none"
             d="M 0,0 H -126.441 V 172.087 H -21.998 V 151.118 H -0.011 L -0.011,0 Z M -139.665,185.306 V -13.218 H 13.213 v 170.981 l -28.406,27.543 z" /></g><g
           transform="translate(51.2041,228.943)"
           id="g44"><path
             id="path46"
             style="fill:#0e3f99;fill-opacity:1;fill-rule:nonzero;stroke:none"
             d="m 0,0 v -22.978 h 13.223 v 9.765 h 104.448 v -20.97 h 21.993 v -151.121 h -5.81 v -13.217 h 19.028 V -27.538 L 124.476,0 Z" /></g><g
           transform="translate(202.8369,256.61)"
           id="g48"><path
             id="path50"
             style="fill:#0e3f99;fill-opacity:1;fill-rule:nonzero;stroke:none"
             d="m 0,0 h -124.474 v -22.983 h 13.218 v 9.765 H -6.805 v -20.97 H 15.188 V -185.306 H 9.384 v -13.217 h 19.027 v 170.98 z" /></g></g></g></g></svg>