<?xml version="1.0" encoding="UTF-8" standalone="no"?>
<svg
   xmlns:dc="http://purl.org/dc/elements/1.1/"
   xmlns:cc="http://creativecommons.org/ns#"
   xmlns:rdf="http://www.w3.org/1999/02/22-rdf-syntax-ns#"
   xmlns:svg="http://www.w3.org/2000/svg"
   xmlns="http://www.w3.org/2000/svg"
   viewBox="0 0 726.66669 726.66669"
   height="726.66669"
   width="726.66669"
   xml:space="preserve"
   id="svg2"
   version="1.1"><metadata
     id="metadata8"><rdf:RDF><cc:Work
         rdf:about=""><dc:format>image/svg+xml</dc:format><dc:type
           rdf:resource="http://purl.org/dc/dcmitype/StillImage" /></cc:Work></rdf:RDF></metadata><defs
     id="defs6"><clipPath
       id="clipPath18"
       clipPathUnits="userSpaceOnUse"><path
         id="path16"
         d="M 0,545 H 545 V 0 H 0 Z" /></clipPath></defs><g
     transform="matrix(1.3333333,0,0,-1.3333333,0,726.66667)"
     id="g10"><g
       id="g12"><g
         clip-path="url(#clipPath18)"
         id="g14"><g
           transform="translate(125.8623,438.1401)"
           id="g20"><path
             id="path22"
             style="fill:#0e3f99;fill-opacity:1;fill-rule:nonzero;stroke:none"
             d="m 0,0 c 12.793,0 25.705,-0.036 38.615,0.013 7.708,0.029 11.334,3.62 11.375,11.297 0.063,11.986 0.044,23.972 -0.018,35.958 -0.006,0.984 0.044,2.32 0.044,2.661 C 33.249,33.191 16.71,16.682 0,0 m -26.588,-192.011 c 0.001,60.327 0.04,120.655 -0.075,180.982 -0.009,4.69 1.358,8.149 4.711,11.468 23.921,23.676 47.725,47.47 71.443,71.349 3.187,3.208 6.546,4.517 11.05,4.51 74.159,-0.101 148.321,-0.415 222.477,0.137 21.876,0.162 38.4,-15.82 37.929,-38.239 -0.653,-31.15 -0.153,-62.324 -0.176,-93.488 0,-1.988 0.026,-4.042 -0.436,-5.95 -0.91,-3.763 -3.715,-5.556 -7.41,-5.368 -3.731,0.191 -6.156,2.387 -6.762,6.18 -0.234,1.466 -0.114,2.992 -0.115,4.491 -0.004,31.497 -0.003,62.994 -10e-4,94.491 10e-4,15.241 -7.796,23.08 -23.042,23.083 -70.993,0.011 -141.986,-0.044 -212.979,0.124 -4.583,0.011 -5.497,-1.337 -5.421,-5.594 0.264,-14.661 0.109,-29.329 0.122,-43.994 0.014,-16.88 -9.755,-26.786 -26.582,-26.838 -15.165,-0.047 -30.331,-0.101 -45.494,0.065 -3.364,0.038 -4.534,-0.726 -4.531,-4.346 0.096,-118.155 0.065,-236.31 0.108,-354.466 0.004,-11.304 7.918,-19.539 19.18,-20.332 2.322,-0.163 4.664,-0.058 6.997,-0.058 77.493,-0.002 154.986,-0.001 232.478,-0.002 7.866,0 11.307,-2.252 11.255,-7.351 -0.053,-5.102 -3.375,-7.217 -11.353,-7.218 -78.992,-0.004 -157.984,-0.012 -236.976,-0.013 -21.677,0 -36.395,14.721 -36.397,36.394 -0.002,59.994 -10e-4,119.989 0,179.983" /></g><g
           transform="translate(421.459,49.3838)"
           id="g24"><path
             id="path26"
             style="fill:#0e3f99;fill-opacity:1;fill-rule:nonzero;stroke:none"
             d="M 0,0 C 1.02,1.36 2.182,2.869 3.528,4.666 0.832,4.489 -1.496,4.323 -4.248,4.26 -2.494,2.411 -1.912,1.663 0,0 m -1.064,54.405 c -9.325,0 -18.65,0.023 -27.974,-0.025 -1.344,-0.007 -3.381,0.448 -3.381,-1.72 -0.139,-4.27 -0.569,-8.278 0.592,-12.227 0.612,-2.08 10.632,-17.451 15.803,-19.946 5.155,-2.488 12.25,-1.562 19.017,-1.532 9.614,0.043 14.676,3.136 19.923,10.716 4.608,6.658 8.52,12.734 7.36,21.218 C 29.89,53.719 29.125,54.5 26.408,54.46 17.253,54.326 8.094,54.409 -1.064,54.405 m -0.402,193.188 c 9.32,0 18.641,0.084 27.958,-0.052 2.759,-0.041 3.822,0.71 3.718,3.627 -0.214,5.984 0.114,11.988 -0.137,17.969 -0.485,11.528 -8.764,19.494 -20.292,19.659 -7.487,0.108 -14.979,0.143 -22.466,-0.005 -11.13,-0.22 -19.508,-8.559 -19.769,-19.627 -0.142,-5.988 0.106,-11.986 -0.092,-17.971 -0.093,-2.822 0.768,-3.709 3.622,-3.657 9.151,0.165 18.306,0.061 27.458,0.057 m -31.015,-96.528 c 0,-25.805 0.078,-51.611 -0.089,-77.416 -0.024,-3.674 0.787,-4.794 4.628,-4.747 17.811,0.22 35.629,0.204 53.44,0.01 3.705,-0.041 4.759,0.89 4.749,4.684 -0.132,51.611 -0.126,103.222 -0.018,154.833 0.007,3.498 -0.955,4.477 -4.442,4.444 -17.812,-0.166 -35.629,-0.197 -53.44,0.02 -3.909,0.048 -4.964,-0.979 -4.937,-4.911 0.182,-25.637 0.094,-51.277 0.109,-76.917 m 77.253,3.682 C 44.778,116.604 44.736,78.461 44.84,40.318 44.852,36.259 43.731,33.026 41.251,29.81 29.866,15.045 18.69,0.119 7.43,-14.741 c -5.072,-6.692 -9.523,-6.761 -14.814,-0.207 -12.238,15.156 -24.424,30.356 -36.713,45.471 -2.213,2.722 -3.251,5.54 -3.248,9.109 0.072,75.952 0.035,151.905 0.054,227.858 0.005,21.015 14.833,35.957 35.739,36.106 6.662,0.048 13.325,0.02 19.988,0.006 21.645,-0.045 36.281,-14.651 36.314,-36.424 0.058,-37.477 0.016,-74.954 0.022,-112.431" /></g><g
           transform="translate(210.2061,230.1631)"
           id="g28"><path
             id="path30"
             style="fill:#0e3f99;fill-opacity:1;fill-rule:nonzero;stroke:none"
             d="m 0,0 c -0.181,-11.84 -15.176,-21.468 -26.247,-17.984 -4.868,1.531 -10.645,5.88 -14.361,3.761 -3.59,-2.046 -4.749,-8.931 -6.625,-13.481 -1.043,-2.53 -0.477,-3.445 1.754,-4.481 4.527,-2.101 8.922,-4.484 13.395,-6.704 5.345,-2.651 7.889,-6.906 7.614,-12.881 -0.092,-1.995 -0.148,-4.005 -0.006,-5.994 0.472,-6.63 -2.361,-11.145 -8.371,-13.909 -4.079,-1.875 -7.966,-4.173 -12.072,-5.981 -2.637,-1.162 -3.564,-2.385 -2.155,-5.224 1.773,-3.57 3.354,-7.271 4.615,-11.051 0.954,-2.858 2.434,-2.886 4.844,-2.051 5.184,1.795 10.438,3.391 15.672,5.043 4.224,1.334 7.716,-0.041 11.107,-2.652 9.674,-7.452 13.982,-16.237 7.604,-27.999 -0.314,-0.578 -0.479,-1.242 -0.683,-1.876 -2.668,-8.309 -2.667,-8.31 5.686,-11.601 9.348,-3.683 10.098,-3.973 13.684,5.294 4.476,11.563 11.81,16.312 24.125,14.825 5.545,-0.669 9.49,-2.484 11.962,-7.428 2.083,-4.168 4.301,-8.272 6.249,-12.502 1.339,-2.908 2.71,-3.67 6.103,-2.426 3.42,1.256 6.805,2.746 10.143,4.185 3.091,1.221 3.35,2.519 2.348,5.283 -1.813,5.001 -3.266,10.131 -4.938,15.184 -1.335,4.033 -0.594,7.905 2.251,10.698 11.542,11.328 10.708,14.657 27.648,8.345 0.311,-0.117 0.624,-0.233 0.941,-0.334 9.63,-3.082 9.63,-3.082 13.617,6.052 3.649,8.357 3.649,8.358 -4.627,12.55 -15.73,7.971 -15.675,7.97 -15.653,24.794 0.007,5.23 2.21,8.917 6.803,11.253 3.414,1.736 6.846,3.437 10.27,5.152 6.723,3.369 6.725,3.37 3.961,10.082 -0.951,2.308 -1.731,4.451 -2.798,6.935 -1.585,3.689 -3.028,3.907 -6.182,2.71 -4.508,-1.711 -9.145,-3.078 -13.718,-4.616 -2.972,-1 -5.935,-0.911 -8.795,0.264 -10.56,4.345 -15.639,15.513 -12.214,26.354 1.433,4.536 5.241,9.652 3.318,13.524 -1.468,2.953 -8.895,5.059 -12.714,6.106 -3.394,0.93 -4.393,0.442 -5.645,-2.291 C 55.901,20.543 53.694,16.242 51.403,11.995 46.972,3.777 28.101,1.567 21.878,8.535 c -1.09,1.221 -1.882,2.738 -2.653,4.203 -1.782,3.388 -3.801,6.704 -5.106,10.275 -1.713,4.683 -3.638,5.644 -8.651,3.449 C 2.528,25.175 0.201,24.288 -2.335,23.177 -5.787,21.665 -6.402,20.537 -5.244,17.1 -3.237,11.142 -0.55,5.341 0,0 m 134.954,-31.373 c -0.084,-5.759 -2.447,-9.29 -6.84,-11.522 -4.898,-2.486 -9.75,-5.077 -14.742,-7.36 -2.425,-1.109 -2.825,-2.76 -2.871,-5.13 -0.045,-2.369 0.87,-3.601 2.932,-4.587 5.1,-2.439 10.191,-4.927 15.128,-7.679 6.021,-3.359 7.9,-8.812 5.343,-15.286 -2.872,-7.275 -5.881,-14.499 -8.972,-21.683 -2.969,-6.901 -8.197,-9.346 -15.369,-7.196 -5.256,1.575 -10.47,3.308 -15.641,5.147 -2.168,0.771 -3.68,0.472 -5.343,-1.188 -1.766,-1.762 -2.249,-3.384 -1.376,-5.768 1.714,-4.685 3.19,-9.457 4.708,-14.211 2.661,-8.33 0.378,-13.583 -7.491,-16.932 -6.893,-2.931 -13.824,-5.777 -20.79,-8.528 -6.91,-2.729 -12.431,-0.677 -15.922,5.881 -2.503,4.699 -4.919,9.448 -7.208,14.255 -1.044,2.193 -2.307,3.273 -4.926,3.218 -2.501,-0.054 -3.906,-0.827 -4.968,-3.122 -2.235,-4.833 -4.69,-9.569 -7.187,-14.275 -3.451,-6.505 -9.088,-8.67 -15.948,-5.988 -7.438,2.908 -14.831,5.942 -22.161,9.113 -6.13,2.652 -8.587,8.237 -6.626,14.772 1.626,5.417 3.343,10.812 5.233,16.142 0.692,1.954 0.789,3.335 -0.922,4.813 -1.67,1.442 -2.938,2.915 -5.597,1.93 -5.146,-1.905 -10.407,-3.509 -15.656,-5.124 -7.483,-2.301 -12.618,0.044 -15.75,7.275 -2.975,6.869 -5.83,13.792 -8.657,20.724 -3.005,7.371 -0.897,13.011 6.147,16.632 4.738,2.436 9.47,4.885 14.267,7.198 1.999,0.964 3.066,2.094 2.993,4.539 -0.073,2.434 -0.688,3.972 -3.03,5.069 -5.119,2.398 -10.182,4.941 -15.121,7.689 -6.212,3.456 -8.139,8.626 -5.572,15.163 3.04,7.745 6.267,15.422 9.634,23.03 2.448,5.529 7.774,7.975 13.594,6.31 5.596,-1.601 11.147,-3.396 16.619,-5.377 2.368,-0.857 3.874,-0.55 5.716,1.219 1.864,1.792 2.109,3.314 1.268,5.641 -1.865,5.159 -3.522,10.397 -5.127,15.646 -2.052,6.707 0.175,12.054 6.449,14.821 7.459,3.29 15.001,6.411 22.611,9.333 6.772,2.601 12.015,0.538 15.473,-5.869 2.607,-4.831 5.119,-9.723 7.411,-14.71 1.102,-2.394 2.667,-2.896 5.085,-2.923 2.373,-0.027 3.598,0.845 4.58,2.915 2.354,4.961 4.867,9.851 7.414,14.718 3.278,6.268 8.907,8.524 15.521,5.955 7.444,-2.891 14.811,-5.995 22.14,-9.171 6.517,-2.824 8.947,-8.201 6.879,-15.122 -1.524,-5.102 -3.265,-10.14 -4.979,-15.183 -0.741,-2.179 -0.948,-3.982 0.983,-5.88 1.939,-1.904 3.583,-2.257 6.152,-1.273 4.964,1.903 10.066,3.474 15.173,4.97 7.193,2.106 12.304,-0.33 15.322,-7.278 2.983,-6.869 5.833,-13.796 8.669,-20.727 0.751,-1.835 1.617,-3.694 1.348,-5.026" /></g><g
           transform="translate(273.001,384.0952)"
           id="g32"><path
             id="path34"
             style="fill:#0e3f99;fill-opacity:1;fill-rule:nonzero;stroke:none"
             d="m 0,0 c -35.833,0 -71.665,0 -107.498,0.001 -1.333,0 -2.692,-0.146 -3.994,0.061 -3.901,0.62 -6.411,2.789 -6.606,6.902 -0.206,4.358 2.248,6.809 6.302,7.723 1.273,0.286 2.655,0.107 3.988,0.108 71.831,0.003 143.663,0.003 215.496,0 1.333,0 2.711,0.176 3.989,-0.101 4.056,-0.88 6.553,-3.301 6.372,-7.659 -0.171,-4.096 -2.655,-6.317 -6.557,-6.968 -1.299,-0.216 -2.661,-0.066 -3.994,-0.066 C 71.665,0 35.833,0 0,0" /></g><g
           transform="translate(257.9551,343.0073)"
           id="g36"><path
             id="path38"
             style="fill:#0e3f99;fill-opacity:1;fill-rule:nonzero;stroke:none"
             d="m 0,0 c -30.811,0 -61.621,-0.001 -92.431,0.003 -1.498,0 -3.043,-0.184 -4.485,0.113 -3.633,0.749 -5.95,2.917 -6.138,6.801 -0.185,3.824 1.63,6.44 5.313,7.425 1.729,0.462 3.619,0.429 5.436,0.429 61.788,0.02 123.576,0.018 185.363,0.004 1.657,-0.001 3.369,0.057 4.96,-0.317 3.698,-0.871 5.815,-3.475 5.747,-7.174 C 103.691,3.368 101.412,0.78 97.42,0.094 96.123,-0.129 94.762,0.002 93.431,0.002 62.287,-0.001 31.144,0 0,0" /></g><g
           transform="translate(199.5068,301.9092)"
           id="g40"><path
             id="path42"
             style="fill:#0e3f99;fill-opacity:1;fill-rule:nonzero;stroke:none"
             d="m 0,0 c -11.994,-0.001 -23.988,-0.029 -35.982,0.012 -5.565,0.018 -8.715,2.752 -8.684,7.356 0.03,4.355 3.138,7.309 8.312,7.326 24.154,0.081 48.309,0.086 72.463,0.009 5.496,-0.017 8.622,-3.086 8.435,-7.705 C 44.366,2.589 41.33,0.036 35.982,0.015 23.988,-0.031 11.994,0 0,0" /></g><g
           transform="translate(397.0137,199.9473)"
           id="g44"><path
             id="path46"
             style="fill:#0e3f99;fill-opacity:1;fill-rule:nonzero;stroke:none"
             d="m 0,0 c 0.003,20.805 -0.013,41.608 0.013,62.413 0.007,5.923 2.718,9.331 7.299,9.373 4.511,0.041 7.452,-3.542 7.454,-9.289 0.019,-41.775 0.021,-83.55 0.004,-125.325 -0.002,-5.945 -2.687,-9.243 -7.37,-9.271 -4.704,-0.028 -7.384,3.228 -7.392,9.188 C -0.02,-41.94 -0.003,-20.97 0,0" /></g><g
           transform="translate(427.7646,199.9629)"
           id="g48"><path
             id="path50"
             style="fill:#0e3f99;fill-opacity:1;fill-rule:nonzero;stroke:none"
             d="m 0,0 c 0,20.331 -0.001,40.662 0.002,60.992 0,1.333 -0.073,2.677 0.066,3.997 0.427,4.039 3.504,6.985 7.305,6.71 3.904,-0.282 6.588,-2.304 7.081,-6.415 0.237,-1.974 0.154,-3.992 0.154,-5.99 0.008,-39.495 0.009,-78.99 -0.002,-118.485 -10e-4,-2.33 0.151,-4.706 -0.243,-6.979 -0.695,-4.014 -3.357,-6.046 -7.42,-5.893 -3.848,0.145 -6.116,2.353 -6.803,6.083 -0.238,1.292 -0.118,2.657 -0.118,3.989 C 0.017,-41.327 0.019,-20.664 0.019,0 Z" /></g><g
           transform="translate(245.6694,151.8613)"
           id="g52"><path
             id="path54"
             style="fill:#0e3f99;fill-opacity:1;fill-rule:nonzero;stroke:none"
             d="m 0,0 c 13.155,-0.008 23.44,10.296 23.368,23.409 -0.07,12.826 -10.26,22.889 -23.26,22.969 -13.04,0.08 -23.621,-10.439 -23.5,-23.362 C -23.274,10.294 -12.818,0.007 0,0 M -37.917,23.495 C -37.822,44.721 -21.03,61.275 0.347,61.222 21.35,61.168 38.26,44.061 38.188,22.939 38.117,2.041 20.863,-14.92 -0.227,-14.825 c -21.114,0.096 -37.787,17.047 -37.69,38.32" /></g></g></g></g></svg>