<?xml version="1.0" encoding="UTF-8" standalone="no"?>
<svg
   xmlns:dc="http://purl.org/dc/elements/1.1/"
   xmlns:cc="http://creativecommons.org/ns#"
   xmlns:rdf="http://www.w3.org/1999/02/22-rdf-syntax-ns#"
   xmlns:svg="http://www.w3.org/2000/svg"
   xmlns="http://www.w3.org/2000/svg"
   viewBox="0 0 8064 5415.9468"
   height="5415.9468"
   width="8064"
   xml:space="preserve"
   id="svg2"
   version="1.1"><metadata
     id="metadata8"><rdf:RDF><cc:Work
         rdf:about=""><dc:format>image/svg+xml</dc:format><dc:type
           rdf:resource="http://purl.org/dc/dcmitype/StillImage" /></cc:Work></rdf:RDF></metadata><defs
     id="defs6"><clipPath
       id="clipPath18"
       clipPathUnits="userSpaceOnUse"><path
         id="path16"
         d="M 0,4061.964 H 6048 V 0 H 0 Z" /></clipPath></defs><g
     transform="matrix(1.3333333,0,0,-1.3333333,0,5415.9467)"
     id="g10"><g
       id="g12"><g
         clip-path="url(#clipPath18)"
         id="g14"><g
           transform="translate(2956.7183,1181.9127)"
           id="g20"><path
             id="path22"
             style="fill:#0e3f99;fill-opacity:1;fill-rule:nonzero;stroke:none"
             d="m 0,0 c 587.788,0 1175.575,-0.072 1763.363,0.049 151.454,0.031 176.667,23.405 176.77,170.06 0.465,656.535 0.446,1313.07 10e-4,1969.604 -0.098,145.968 -27.655,172.498 -176.615,172.524 -1172.138,0.205 -2344.275,0.204 -3516.413,10e-4 -149.121,-0.025 -176.651,-26.477 -176.75,-172.353 -0.442,-656.535 -0.459,-1313.069 0.01,-1969.604 0.104,-146.926 25.162,-170.2 176.585,-170.232 C -1168.701,-0.073 -584.351,0 0,0 m 11.192,2481.392 c 618.502,0 1237.005,0.073 1855.506,-0.041 203.271,-0.038 243.202,-39.101 243.232,-238.057 0.113,-725.022 0.1,-1450.043 0.019,-2175.065 -0.024,-198.261 -45.143,-244.306 -239.693,-244.319 -1243.876,-0.078 -2487.752,-0.081 -3731.628,0.005 -190.475,0.013 -238.028,47.013 -238.064,235.59 -0.141,731.894 -0.172,1463.788 0.034,2195.682 0.051,180.406 45.01,225.982 224.163,226.077 628.81,0.33 1257.621,0.128 1886.431,0.128" /></g><g
           transform="translate(2950.5234,605.4381)"
           id="g24"><path
             id="path26"
             style="fill:#0e3f99;fill-opacity:1;fill-rule:nonzero;stroke:none"
             d="m 0,0 c -749.011,-0.027 -1498.022,-0.032 -2247.033,-0.012 -30.922,0.001 -61.908,-1.013 -92.753,0.587 -93.902,4.875 -156.086,61.716 -157.187,142.356 -1.102,80.698 61.798,145.232 153.767,145.582 463.83,1.763 927.669,1.028 1391.505,0.54 19.902,-0.022 57.624,-1.023 57.446,-10.338 -1.477,-77.403 119.568,-68.475 190.416,-68.475 491.308,-2.768 982.641,-2.079 1473.96,-0.643 53.561,0.156 131.198,-10.946 142.162,64.097 1.71,11.703 55.488,15.174 85.087,15.235 446.656,0.927 893.316,1.013 1339.972,0.387 115.414,-0.162 185.309,-58.626 182.454,-148.605 C 2517.044,53.97 2451.426,0.479 2339.8,0.382 1559.867,-0.288 779.934,0.028 0,0" /></g></g></g></g></svg>